G04 MADE WITH FRITZING*
G04 WWW.FRITZING.ORG*
G04 DOUBLE SIDED*
G04 HOLES PLATED*
G04 CONTOUR ON CENTER OF CONTOUR VECTOR*
%ASAXBY*%
%FSLAX23Y23*%
%MOIN*%
%OFA0B0*%
%SFA1.0B1.0*%
%ADD10C,0.070000*%
%ADD11C,0.077778*%
%ADD12C,0.078000*%
%ADD13C,0.075000*%
%ADD14R,0.078000X0.078000*%
%ADD15C,0.024000*%
%ADD16R,0.001000X0.001000*%
%LNCOPPER0*%
G90*
G70*
G54D10*
X1430Y499D03*
X1430Y599D03*
X1430Y699D03*
X1430Y799D03*
X1430Y899D03*
G54D11*
X330Y899D03*
X330Y799D03*
X330Y699D03*
X330Y599D03*
X330Y499D03*
X330Y399D03*
X330Y299D03*
X330Y199D03*
X1230Y199D03*
X1230Y299D03*
X1230Y399D03*
X1230Y499D03*
X1230Y599D03*
X1230Y699D03*
X1230Y799D03*
X1230Y899D03*
G54D12*
X130Y799D03*
X130Y699D03*
X1430Y299D03*
X1430Y199D03*
G54D13*
X1830Y799D03*
X1830Y399D03*
X1730Y399D03*
X1730Y799D03*
G54D14*
X130Y799D03*
X1430Y299D03*
G54D15*
X131Y900D02*
X130Y829D01*
D02*
X301Y899D02*
X131Y900D01*
D02*
X131Y701D02*
X150Y721D01*
D02*
X301Y700D02*
X131Y701D01*
D02*
X1259Y199D02*
X1400Y199D01*
D02*
X1256Y586D02*
X1402Y513D01*
D02*
X1256Y686D02*
X1402Y613D01*
D02*
X631Y201D02*
X1030Y998D01*
D02*
X359Y199D02*
X631Y201D01*
D02*
X1030Y998D02*
X1330Y998D01*
D02*
X1330Y998D02*
X1330Y799D01*
D02*
X1330Y799D02*
X1399Y799D01*
D02*
X1643Y289D02*
X1631Y701D01*
D02*
X1631Y701D02*
X1461Y700D01*
D02*
X1428Y299D02*
X1643Y289D01*
D02*
X1259Y299D02*
X1428Y299D01*
D02*
X1631Y100D02*
X1428Y100D01*
D02*
X1829Y299D02*
X1631Y100D01*
D02*
X1428Y100D02*
X1429Y169D01*
D02*
X1830Y371D02*
X1829Y299D01*
D02*
X1729Y299D02*
X1730Y371D01*
D02*
X1643Y289D02*
X1729Y299D01*
D02*
X1529Y1099D02*
X1714Y823D01*
D02*
X529Y799D02*
X529Y1099D01*
D02*
X359Y799D02*
X529Y799D01*
D02*
X529Y1099D02*
X1529Y1099D01*
D02*
X1801Y799D02*
X1758Y799D01*
G54D16*
X1919Y968D02*
X1939Y968D01*
X1914Y967D02*
X1944Y967D01*
X1910Y966D02*
X1948Y966D01*
X1907Y965D02*
X1951Y965D01*
X1904Y964D02*
X1953Y964D01*
X1902Y963D02*
X1956Y963D01*
X1900Y962D02*
X1958Y962D01*
X1897Y961D02*
X1960Y961D01*
X1896Y960D02*
X1962Y960D01*
X1894Y959D02*
X1964Y959D01*
X1892Y958D02*
X1965Y958D01*
X1891Y957D02*
X1967Y957D01*
X1889Y956D02*
X1968Y956D01*
X1880Y948D02*
X1918Y948D01*
X1879Y947D02*
X1914Y947D01*
X1878Y946D02*
X1911Y946D01*
X1877Y945D02*
X1908Y945D01*
X1876Y944D02*
X1906Y944D01*
X1875Y943D02*
X1904Y943D01*
X1875Y942D02*
X1903Y942D01*
X1874Y941D02*
X1901Y941D01*
X1873Y940D02*
X1900Y940D01*
X1872Y939D02*
X1899Y939D01*
X1872Y938D02*
X1897Y938D01*
X1871Y937D02*
X1896Y937D01*
X1871Y936D02*
X1895Y936D01*
X1870Y935D02*
X1894Y935D01*
X1869Y934D02*
X1893Y934D01*
X1869Y933D02*
X1892Y933D01*
X1868Y932D02*
X1891Y932D01*
X1868Y931D02*
X1890Y931D01*
X1867Y930D02*
X1889Y930D01*
X1867Y929D02*
X1889Y929D01*
X1866Y928D02*
X1888Y928D01*
X1866Y927D02*
X1887Y927D01*
X1865Y926D02*
X1887Y926D01*
X1865Y925D02*
X1886Y925D01*
X1865Y924D02*
X1885Y924D01*
X1864Y923D02*
X1885Y923D01*
X1864Y922D02*
X1884Y922D01*
X1864Y921D02*
X1884Y921D01*
X1863Y920D02*
X1883Y920D01*
X1863Y919D02*
X1883Y919D01*
X1863Y918D02*
X1882Y918D01*
X1862Y917D02*
X1882Y917D01*
X1862Y916D02*
X1882Y916D01*
X1862Y915D02*
X1881Y915D01*
X1862Y914D02*
X1881Y914D01*
X1861Y913D02*
X1881Y913D01*
X1861Y912D02*
X1881Y912D01*
X1861Y911D02*
X1880Y911D01*
X1861Y910D02*
X1880Y910D01*
X1861Y909D02*
X1880Y909D01*
X1861Y908D02*
X1880Y908D01*
X1861Y907D02*
X1880Y907D01*
X1860Y906D02*
X1879Y906D01*
X1860Y905D02*
X1879Y905D01*
X1860Y904D02*
X1879Y904D01*
X1860Y903D02*
X1879Y903D01*
X1860Y902D02*
X1879Y902D01*
X1860Y901D02*
X1879Y901D01*
X1860Y900D02*
X1879Y900D01*
X1860Y899D02*
X1879Y899D01*
X1860Y898D02*
X1879Y898D01*
X1860Y897D02*
X1879Y897D01*
X1860Y896D02*
X1879Y896D01*
X1860Y895D02*
X1879Y895D01*
X1860Y894D02*
X1879Y894D01*
X1860Y893D02*
X1880Y893D01*
X1861Y892D02*
X1880Y892D01*
X1861Y891D02*
X1880Y891D01*
X1861Y890D02*
X1880Y890D01*
X1861Y889D02*
X1880Y889D01*
X1861Y888D02*
X1880Y888D01*
X1861Y887D02*
X1881Y887D01*
X1862Y886D02*
X1881Y886D01*
X1862Y885D02*
X1881Y885D01*
X1862Y884D02*
X1882Y884D01*
X1862Y883D02*
X1882Y883D01*
X1863Y882D02*
X1882Y882D01*
X1863Y881D02*
X1883Y881D01*
X1863Y880D02*
X1883Y880D01*
X1863Y879D02*
X1884Y879D01*
X1864Y878D02*
X1884Y878D01*
X1864Y877D02*
X1885Y877D01*
X1865Y876D02*
X1885Y876D01*
X1865Y875D02*
X1886Y875D01*
X1865Y874D02*
X1886Y874D01*
X1866Y873D02*
X1887Y873D01*
X1866Y872D02*
X1888Y872D01*
X1867Y871D02*
X1888Y871D01*
X1867Y870D02*
X1889Y870D01*
X1868Y869D02*
X1890Y869D01*
X1868Y868D02*
X1891Y868D01*
X1869Y867D02*
X1892Y867D01*
X1869Y866D02*
X1893Y866D01*
X1870Y865D02*
X1894Y865D01*
X1870Y864D02*
X1895Y864D01*
X1871Y863D02*
X1896Y863D01*
X1872Y862D02*
X1897Y862D01*
X1872Y861D02*
X1898Y861D01*
X1873Y860D02*
X1899Y860D01*
X1874Y859D02*
X1901Y859D01*
X1874Y858D02*
X1902Y858D01*
X1875Y857D02*
X1904Y857D01*
X1876Y856D02*
X1906Y856D01*
X1877Y855D02*
X1908Y855D01*
X1878Y854D02*
X1910Y854D01*
X1878Y853D02*
X1913Y853D01*
X1879Y852D02*
X1916Y852D01*
X1880Y851D02*
X1922Y851D01*
X1890Y843D02*
X1968Y843D01*
X1891Y842D02*
X1966Y842D01*
X1893Y841D02*
X1964Y841D01*
X1895Y840D02*
X1963Y840D01*
X1897Y839D02*
X1961Y839D01*
X1899Y838D02*
X1959Y838D01*
X1901Y837D02*
X1957Y837D01*
X1903Y836D02*
X1955Y836D01*
X1906Y835D02*
X1952Y835D01*
X1908Y834D02*
X1949Y834D01*
X1912Y833D02*
X1946Y833D01*
X1916Y832D02*
X1942Y832D01*
X1922Y831D02*
X1936Y831D01*
X1929Y569D02*
X1929Y569D01*
X1918Y568D02*
X1939Y568D01*
X1913Y567D02*
X1944Y567D01*
X1910Y566D02*
X1948Y566D01*
X1907Y565D02*
X1951Y565D01*
X1904Y564D02*
X1954Y564D01*
X1902Y563D02*
X1956Y563D01*
X1899Y562D02*
X1958Y562D01*
X1897Y561D02*
X1960Y561D01*
X1895Y560D02*
X1962Y560D01*
X1894Y559D02*
X1964Y559D01*
X1892Y558D02*
X1965Y558D01*
X1891Y557D02*
X1967Y557D01*
X1889Y556D02*
X1968Y556D01*
X1881Y549D02*
X1928Y549D01*
X1880Y548D02*
X1918Y548D01*
X1879Y547D02*
X1914Y547D01*
X1878Y546D02*
X1911Y546D01*
X1877Y545D02*
X1908Y545D01*
X1876Y544D02*
X1906Y544D01*
X1875Y543D02*
X1904Y543D01*
X1875Y542D02*
X1903Y542D01*
X1874Y541D02*
X1901Y541D01*
X1873Y540D02*
X1900Y540D01*
X1872Y539D02*
X1899Y539D01*
X1872Y538D02*
X1897Y538D01*
X1871Y537D02*
X1896Y537D01*
X1871Y536D02*
X1895Y536D01*
X1870Y535D02*
X1894Y535D01*
X1869Y534D02*
X1893Y534D01*
X1869Y533D02*
X1892Y533D01*
X1868Y532D02*
X1891Y532D01*
X1868Y531D02*
X1890Y531D01*
X1867Y530D02*
X1889Y530D01*
X1867Y529D02*
X1889Y529D01*
X1866Y528D02*
X1888Y528D01*
X1866Y527D02*
X1887Y527D01*
X1865Y526D02*
X1887Y526D01*
X1865Y525D02*
X1886Y525D01*
X1865Y524D02*
X1885Y524D01*
X1864Y523D02*
X1885Y523D01*
X1864Y522D02*
X1884Y522D01*
X1864Y521D02*
X1884Y521D01*
X1863Y520D02*
X1883Y520D01*
X1863Y519D02*
X1883Y519D01*
X1863Y518D02*
X1882Y518D01*
X1862Y517D02*
X1882Y517D01*
X1862Y516D02*
X1882Y516D01*
X1862Y515D02*
X1881Y515D01*
X1862Y514D02*
X1881Y514D01*
X1861Y513D02*
X1881Y513D01*
X1861Y512D02*
X1881Y512D01*
X1861Y511D02*
X1880Y511D01*
X1861Y510D02*
X1880Y510D01*
X1861Y509D02*
X1880Y509D01*
X1861Y508D02*
X1880Y508D01*
X1861Y507D02*
X1880Y507D01*
X1860Y506D02*
X1879Y506D01*
X1860Y505D02*
X1879Y505D01*
X1860Y504D02*
X1879Y504D01*
X1860Y503D02*
X1879Y503D01*
X1860Y502D02*
X1879Y502D01*
X1860Y501D02*
X1879Y501D01*
X1860Y500D02*
X1879Y500D01*
X1860Y499D02*
X1879Y499D01*
X1860Y498D02*
X1879Y498D01*
X1860Y497D02*
X1879Y497D01*
X1860Y496D02*
X1879Y496D01*
X1860Y495D02*
X1879Y495D01*
X1860Y494D02*
X1879Y494D01*
X1860Y493D02*
X1880Y493D01*
X1861Y492D02*
X1880Y492D01*
X1861Y491D02*
X1880Y491D01*
X1861Y490D02*
X1880Y490D01*
X1861Y489D02*
X1880Y489D01*
X1861Y488D02*
X1880Y488D01*
X1861Y487D02*
X1881Y487D01*
X1862Y486D02*
X1881Y486D01*
X1862Y485D02*
X1881Y485D01*
X1862Y484D02*
X1882Y484D01*
X1862Y483D02*
X1882Y483D01*
X1863Y482D02*
X1882Y482D01*
X1863Y481D02*
X1883Y481D01*
X1863Y480D02*
X1883Y480D01*
X1863Y479D02*
X1884Y479D01*
X1864Y478D02*
X1884Y478D01*
X1864Y477D02*
X1885Y477D01*
X1865Y476D02*
X1885Y476D01*
X1865Y475D02*
X1886Y475D01*
X1865Y474D02*
X1886Y474D01*
X1866Y473D02*
X1887Y473D01*
X1866Y472D02*
X1888Y472D01*
X1867Y471D02*
X1888Y471D01*
X1867Y470D02*
X1889Y470D01*
X1868Y469D02*
X1890Y469D01*
X1868Y468D02*
X1891Y468D01*
X1869Y467D02*
X1892Y467D01*
X1869Y466D02*
X1893Y466D01*
X1870Y465D02*
X1894Y465D01*
X1870Y464D02*
X1895Y464D01*
X1871Y463D02*
X1896Y463D01*
X1872Y462D02*
X1897Y462D01*
X1872Y461D02*
X1898Y461D01*
X1873Y460D02*
X1899Y460D01*
X1874Y459D02*
X1901Y459D01*
X1874Y458D02*
X1902Y458D01*
X1875Y457D02*
X1904Y457D01*
X1876Y456D02*
X1906Y456D01*
X1877Y455D02*
X1908Y455D01*
X1878Y454D02*
X1910Y454D01*
X1878Y453D02*
X1913Y453D01*
X1879Y452D02*
X1916Y452D01*
X1880Y451D02*
X1922Y451D01*
X1890Y443D02*
X1968Y443D01*
X1892Y442D02*
X1966Y442D01*
X1893Y441D02*
X1964Y441D01*
X1895Y440D02*
X1963Y440D01*
X1897Y439D02*
X1961Y439D01*
X1899Y438D02*
X1959Y438D01*
X1901Y437D02*
X1957Y437D01*
X1903Y436D02*
X1955Y436D01*
X1906Y435D02*
X1952Y435D01*
X1908Y434D02*
X1949Y434D01*
X1912Y433D02*
X1945Y433D01*
X1916Y432D02*
X1941Y432D01*
X1922Y431D02*
X1935Y431D01*
D02*
G04 End of Copper0*
M02*