; NON-PLATED HOLES START AT T1
; THROUGH (PLATED) HOLES START AT T100
M48
INCH
T100C0.036111
T101C0.039370
T102C0.038000
T103C0.035000
%
T100
X012297Y003993
X003297Y003993
X012297Y004993
X003297Y004993
X012297Y005993
X003297Y005993
X012297Y006993
X003297Y006993
X012297Y007993
X012297Y001993
X003297Y007993
X003297Y001993
X012297Y008993
X012297Y002993
X003297Y008993
X003297Y002993
T101
X014297Y008993
X014297Y006993
X014297Y004993
X014297Y007993
X014297Y005993
T102
X014297Y001993
X001297Y006993
X014297Y002993
X001297Y007993
T103
X018297Y007993
X017297Y007993
X018297Y003993
X017297Y003993
T00
M30
