G04 MADE WITH FRITZING*
G04 WWW.FRITZING.ORG*
G04 DOUBLE SIDED*
G04 HOLES PLATED*
G04 CONTOUR ON CENTER OF CONTOUR VECTOR*
%ASAXBY*%
%FSLAX23Y23*%
%MOIN*%
%OFA0B0*%
%SFA1.0B1.0*%
%ADD10C,0.080000*%
%ADD11C,0.087778*%
%ADD12C,0.088000*%
%ADD13C,0.085000*%
%ADD14R,0.088000X0.088000*%
%ADD15R,0.001000X0.001000*%
%LNMASK0*%
G90*
G70*
G54D10*
X1430Y499D03*
X1430Y599D03*
X1430Y699D03*
X1430Y799D03*
X1430Y899D03*
G54D11*
X330Y899D03*
X330Y799D03*
X330Y699D03*
X330Y599D03*
X330Y499D03*
X330Y399D03*
X330Y299D03*
X330Y199D03*
X1230Y199D03*
X1230Y299D03*
X1230Y399D03*
X1230Y499D03*
X1230Y599D03*
X1230Y699D03*
X1230Y799D03*
X1230Y899D03*
G54D12*
X130Y799D03*
X130Y699D03*
X1430Y299D03*
X1430Y199D03*
G54D13*
X1830Y799D03*
X1830Y399D03*
X1730Y399D03*
X1730Y799D03*
G54D14*
X130Y799D03*
X1430Y299D03*
G54D15*
X1918Y973D02*
X1939Y973D01*
X1913Y972D02*
X1945Y972D01*
X1909Y971D02*
X1949Y971D01*
X1906Y970D02*
X1952Y970D01*
X1903Y969D02*
X1955Y969D01*
X1900Y968D02*
X1957Y968D01*
X1898Y967D02*
X1960Y967D01*
X1896Y966D02*
X1962Y966D01*
X1894Y965D02*
X1964Y965D01*
X1892Y964D02*
X1965Y964D01*
X1891Y963D02*
X1967Y963D01*
X1890Y837D02*
X1968Y837D01*
X1892Y836D02*
X1966Y836D01*
X1893Y835D02*
X1964Y835D01*
X1895Y834D02*
X1962Y834D01*
X1897Y833D02*
X1960Y833D01*
X1899Y832D02*
X1958Y832D01*
X1902Y831D02*
X1956Y831D01*
X1904Y830D02*
X1953Y830D01*
X1907Y829D02*
X1950Y829D01*
X1911Y828D02*
X1947Y828D01*
X1915Y827D02*
X1942Y827D01*
X1922Y826D02*
X1936Y826D01*
X1928Y574D02*
X1929Y574D01*
X1918Y573D02*
X1940Y573D01*
X1913Y572D02*
X1945Y572D01*
X1909Y571D02*
X1949Y571D01*
X1905Y570D02*
X1952Y570D01*
X1903Y569D02*
X1955Y569D01*
X1900Y568D02*
X1958Y568D01*
X1898Y567D02*
X1960Y567D01*
X1896Y566D02*
X1962Y566D01*
X1894Y565D02*
X1964Y565D01*
X1892Y564D02*
X1965Y564D01*
X1891Y563D02*
X1967Y563D01*
X1890Y437D02*
X1968Y437D01*
X1892Y436D02*
X1966Y436D01*
X1893Y435D02*
X1964Y435D01*
X1895Y434D02*
X1962Y434D01*
X1897Y433D02*
X1960Y433D01*
X1899Y432D02*
X1958Y432D01*
X1902Y431D02*
X1956Y431D01*
X1904Y430D02*
X1953Y430D01*
X1907Y429D02*
X1950Y429D01*
X1911Y428D02*
X1946Y428D01*
X1916Y427D02*
X1942Y427D01*
X1922Y426D02*
X1936Y426D01*
D02*
G04 End of Mask0*
M02*